<mxfile host="app.diagrams.net" modified="2023-10-17T11:49:21.667Z" agent="Mozilla/5.0 (X11; Ubuntu; Linux x86_64; rv:109.0) Gecko/20100101 Firefox/118.0" etag="lXVywHoQz8NB0lHKcqI3" version="22.0.4" type="device">
  <diagram name="Page-1" id="e56a1550-8fbb-45ad-956c-1786394a9013">
    <mxGraphModel dx="2647" dy="2300" grid="1" gridSize="10" guides="1" tooltips="1" connect="1" arrows="1" fold="1" page="1" pageScale="1" pageWidth="1100" pageHeight="850" background="none" math="0" shadow="0">
      <root>
        <mxCell id="0" />
        <mxCell id="1" parent="0" />
        <mxCell id="8esEUGF_5FiY5qP6EXzD-14" style="edgeStyle=orthogonalEdgeStyle;rounded=0;orthogonalLoop=1;jettySize=auto;html=1;exitX=1;exitY=0.5;exitDx=0;exitDy=0;entryX=0;entryY=0.5;entryDx=0;entryDy=0;" edge="1" parent="1" source="8esEUGF_5FiY5qP6EXzD-1" target="8esEUGF_5FiY5qP6EXzD-4">
          <mxGeometry relative="1" as="geometry" />
        </mxCell>
        <mxCell id="8esEUGF_5FiY5qP6EXzD-15" style="edgeStyle=orthogonalEdgeStyle;rounded=0;orthogonalLoop=1;jettySize=auto;html=1;exitX=0.5;exitY=0;exitDx=0;exitDy=0;entryX=0;entryY=0.5;entryDx=0;entryDy=0;" edge="1" parent="1" source="8esEUGF_5FiY5qP6EXzD-1" target="8esEUGF_5FiY5qP6EXzD-3">
          <mxGeometry relative="1" as="geometry" />
        </mxCell>
        <mxCell id="8esEUGF_5FiY5qP6EXzD-16" style="edgeStyle=orthogonalEdgeStyle;rounded=0;orthogonalLoop=1;jettySize=auto;html=1;exitX=0.5;exitY=1;exitDx=0;exitDy=0;entryX=0;entryY=0.5;entryDx=0;entryDy=0;" edge="1" parent="1" source="8esEUGF_5FiY5qP6EXzD-1" target="8esEUGF_5FiY5qP6EXzD-5">
          <mxGeometry relative="1" as="geometry" />
        </mxCell>
        <mxCell id="8esEUGF_5FiY5qP6EXzD-29" style="edgeStyle=orthogonalEdgeStyle;rounded=0;orthogonalLoop=1;jettySize=auto;html=1;exitX=1;exitY=0;exitDx=0;exitDy=0;entryX=0;entryY=0.5;entryDx=0;entryDy=0;" edge="1" parent="1" source="8esEUGF_5FiY5qP6EXzD-1" target="8esEUGF_5FiY5qP6EXzD-28">
          <mxGeometry relative="1" as="geometry" />
        </mxCell>
        <mxCell id="8esEUGF_5FiY5qP6EXzD-1" value="HOME" style="ellipse;whiteSpace=wrap;html=1;fillColor=#fff2cc;strokeColor=#d6b656;" vertex="1" parent="1">
          <mxGeometry x="310" y="20" width="120" height="80" as="geometry" />
        </mxCell>
        <mxCell id="8esEUGF_5FiY5qP6EXzD-17" style="edgeStyle=orthogonalEdgeStyle;rounded=0;orthogonalLoop=1;jettySize=auto;html=1;exitX=0.5;exitY=0;exitDx=0;exitDy=0;entryX=0;entryY=0.5;entryDx=0;entryDy=0;" edge="1" parent="1" source="8esEUGF_5FiY5qP6EXzD-3" target="8esEUGF_5FiY5qP6EXzD-6">
          <mxGeometry relative="1" as="geometry" />
        </mxCell>
        <mxCell id="8esEUGF_5FiY5qP6EXzD-18" style="edgeStyle=orthogonalEdgeStyle;rounded=0;orthogonalLoop=1;jettySize=auto;html=1;exitX=1;exitY=0;exitDx=0;exitDy=0;entryX=0;entryY=0.5;entryDx=0;entryDy=0;" edge="1" parent="1" source="8esEUGF_5FiY5qP6EXzD-3" target="8esEUGF_5FiY5qP6EXzD-7">
          <mxGeometry relative="1" as="geometry" />
        </mxCell>
        <mxCell id="8esEUGF_5FiY5qP6EXzD-3" value="&lt;div&gt;VACCINATION&lt;/div&gt;&lt;div&gt;SERVICES&lt;br&gt;&lt;/div&gt;" style="ellipse;whiteSpace=wrap;html=1;fillColor=#f8cecc;strokeColor=#b85450;" vertex="1" parent="1">
          <mxGeometry x="540" y="-400" width="120" height="80" as="geometry" />
        </mxCell>
        <mxCell id="8esEUGF_5FiY5qP6EXzD-21" style="edgeStyle=orthogonalEdgeStyle;rounded=0;orthogonalLoop=1;jettySize=auto;html=1;exitX=0.5;exitY=0;exitDx=0;exitDy=0;entryX=0;entryY=0.5;entryDx=0;entryDy=0;" edge="1" parent="1" source="8esEUGF_5FiY5qP6EXzD-4" target="8esEUGF_5FiY5qP6EXzD-10">
          <mxGeometry relative="1" as="geometry" />
        </mxCell>
        <mxCell id="8esEUGF_5FiY5qP6EXzD-22" style="edgeStyle=orthogonalEdgeStyle;rounded=0;orthogonalLoop=1;jettySize=auto;html=1;exitX=0.5;exitY=1;exitDx=0;exitDy=0;entryX=0;entryY=0.5;entryDx=0;entryDy=0;" edge="1" parent="1" source="8esEUGF_5FiY5qP6EXzD-4" target="8esEUGF_5FiY5qP6EXzD-11">
          <mxGeometry relative="1" as="geometry" />
        </mxCell>
        <mxCell id="8esEUGF_5FiY5qP6EXzD-4" value="RESOURCES" style="ellipse;whiteSpace=wrap;html=1;fillColor=#f8cecc;strokeColor=#b85450;" vertex="1" parent="1">
          <mxGeometry x="540" y="20" width="120" height="80" as="geometry" />
        </mxCell>
        <mxCell id="8esEUGF_5FiY5qP6EXzD-5" value="REVIEW" style="ellipse;whiteSpace=wrap;html=1;fillColor=#f8cecc;strokeColor=#b85450;" vertex="1" parent="1">
          <mxGeometry x="540" y="250" width="120" height="80" as="geometry" />
        </mxCell>
        <mxCell id="8esEUGF_5FiY5qP6EXzD-6" value="VACCINATION CENTER DETAILS" style="ellipse;whiteSpace=wrap;html=1;fillColor=#d5e8d4;strokeColor=#82b366;" vertex="1" parent="1">
          <mxGeometry x="790" y="-580" width="120" height="80" as="geometry" />
        </mxCell>
        <mxCell id="8esEUGF_5FiY5qP6EXzD-7" value="BOOKED&amp;nbsp; SLOT DETAILS" style="ellipse;whiteSpace=wrap;html=1;fillColor=#d5e8d4;strokeColor=#82b366;" vertex="1" parent="1">
          <mxGeometry x="790" y="-470" width="120" height="80" as="geometry" />
        </mxCell>
        <mxCell id="8esEUGF_5FiY5qP6EXzD-8" value="BOOK YOUR SLOT" style="ellipse;whiteSpace=wrap;html=1;fillColor=#d5e8d4;strokeColor=#82b366;" vertex="1" parent="1">
          <mxGeometry x="790" y="-350" width="120" height="80" as="geometry" />
        </mxCell>
        <mxCell id="8esEUGF_5FiY5qP6EXzD-10" value="WHY VACCINATION" style="ellipse;whiteSpace=wrap;html=1;fillColor=#d5e8d4;strokeColor=#82b366;" vertex="1" parent="1">
          <mxGeometry x="780" y="-40" width="120" height="80" as="geometry" />
        </mxCell>
        <mxCell id="8esEUGF_5FiY5qP6EXzD-11" value="VACCINE INSTRUCTIONS" style="ellipse;whiteSpace=wrap;html=1;fillColor=#d5e8d4;strokeColor=#82b366;" vertex="1" parent="1">
          <mxGeometry x="780" y="80" width="120" height="80" as="geometry" />
        </mxCell>
        <mxCell id="8esEUGF_5FiY5qP6EXzD-19" style="edgeStyle=orthogonalEdgeStyle;rounded=0;orthogonalLoop=1;jettySize=auto;html=1;exitX=1;exitY=1;exitDx=0;exitDy=0;entryX=0;entryY=0.5;entryDx=0;entryDy=0;" edge="1" parent="1" source="8esEUGF_5FiY5qP6EXzD-3" target="8esEUGF_5FiY5qP6EXzD-8">
          <mxGeometry relative="1" as="geometry" />
        </mxCell>
        <mxCell id="8esEUGF_5FiY5qP6EXzD-23" value="&lt;font style=&quot;font-size: 36px;&quot;&gt;REGISTERED USER&lt;/font&gt;" style="text;html=1;strokeColor=none;fillColor=none;align=center;verticalAlign=middle;whiteSpace=wrap;rounded=0;" vertex="1" parent="1">
          <mxGeometry x="460" y="490" width="230" height="30" as="geometry" />
        </mxCell>
        <mxCell id="8esEUGF_5FiY5qP6EXzD-28" value="DASHBOARD" style="ellipse;whiteSpace=wrap;html=1;fillColor=#f8cecc;strokeColor=#b85450;" vertex="1" parent="1">
          <mxGeometry x="540" y="-210" width="120" height="80" as="geometry" />
        </mxCell>
      </root>
    </mxGraphModel>
  </diagram>
</mxfile>
